<svg width="20" height="15" viewBox="0 0 20 15" fill="none" xmlns="http://www.w3.org/2000/svg">
<path d="M5.64279 14.0001C6.66846 14.0001 7.49993 13.1686 7.49993 12.1429C7.49993 11.1172 6.66846 10.2858 5.64279 10.2858C4.61712 10.2858 3.78564 11.1172 3.78564 12.1429C3.78564 13.1686 4.61712 14.0001 5.64279 14.0001Z" stroke="#EBEBEB" stroke-width="1.5" stroke-linecap="round" stroke-linejoin="round"/>
<path d="M14.9286 14.0001C15.9542 14.0001 16.7857 13.1686 16.7857 12.1429C16.7857 11.1172 15.9542 10.2858 14.9286 10.2858C13.9029 10.2858 13.0714 11.1172 13.0714 12.1429C13.0714 13.1686 13.9029 14.0001 14.9286 14.0001Z" stroke="#EBEBEB" stroke-width="1.5" stroke-linecap="round" stroke-linejoin="round"/>
<path d="M1 1H11.2143M7.5 12.1429H13.0714M18.6429 6.57143V12.1429L11.2143 6.57143H18.6429ZM18.6429 6.57143L15.8571 1.92857H11.2143M3.78571 12.1429H1.92857V8.42857L3.78571 12.1429Z" stroke="#EBEBEB" stroke-width="1.5" stroke-linecap="round" stroke-linejoin="round"/>
<path d="M1.92859 4.71423H5.64287" stroke="#EBEBEB" stroke-width="1.5" stroke-linecap="round" stroke-linejoin="round"/>
</svg>
