<svg width="22" height="17" viewBox="0 0 22 17" fill="none" xmlns="http://www.w3.org/2000/svg">
<path fill-rule="evenodd" clip-rule="evenodd" d="M10.7651 10.0315C9.67198 10.0315 6.98742 10.0351 6.98742 10.0351V7.26279H13.6981C14.1655 10.6172 12.7556 15.6489 6.98742 15.6489C3.12836 15.6489 0 12.5149 0 8.64893C0 4.78292 3.12836 1.64893 6.98742 1.64893C8.7982 1.64893 10.4481 2.33895 11.6894 3.47087C10.7275 4.38092 10.4191 4.72783 10.1571 5.02259C10.0208 5.17592 9.89701 5.31513 9.70034 5.51216C8.9823 4.9173 8.1995 4.49051 6.98742 4.49051C4.69492 4.49051 2.90566 6.3523 2.90566 8.64893C2.90566 10.9455 4.69492 12.8073 6.98742 12.8073C9.25273 12.8073 10.1731 11.8287 10.7651 10.0315ZM19.5786 4.97566V7.4014H22V9.13407H19.5786V11.6291H17.8491V9.13407H15.3585V7.4014H17.8491V4.97566H19.5786Z" fill="#D9D9D9"/>
<mask id="mask0" mask-type="alpha" maskUnits="userSpaceOnUse" x="0" y="1" width="22" height="15">
<path fill-rule="evenodd" clip-rule="evenodd" d="M10.7651 10.0315C9.67198 10.0315 6.98742 10.0351 6.98742 10.0351V7.26279H13.6981C14.1655 10.6172 12.7556 15.6489 6.98742 15.6489C3.12836 15.6489 0 12.5149 0 8.64893C0 4.78292 3.12836 1.64893 6.98742 1.64893C8.7982 1.64893 10.4481 2.33895 11.6894 3.47087C10.7275 4.38092 10.4191 4.72783 10.1571 5.02259C10.0208 5.17592 9.89701 5.31513 9.70034 5.51216C8.9823 4.9173 8.1995 4.49051 6.98742 4.49051C4.69492 4.49051 2.90566 6.3523 2.90566 8.64893C2.90566 10.9455 4.69492 12.8073 6.98742 12.8073C9.25273 12.8073 10.1731 11.8287 10.7651 10.0315ZM19.5786 4.97566V7.4014H22V9.13407H19.5786V11.6291H17.8491V9.13407H15.3585V7.4014H17.8491V4.97566H19.5786Z" fill="white"/>
</mask>
<g mask="url(#mask0)">
</g>
</svg>
