<svg width="20" height="20" viewBox="0 0 20 20" fill="none" xmlns="http://www.w3.org/2000/svg">
<path fill-rule="evenodd" clip-rule="evenodd" d="M6.23216 6.24782V1.56152H1.54586V6.24782H6.23216ZM3.10749 3.12355V4.68565H4.66959V3.12355H3.10749ZM7.79356 4.68565V3.12355H18.7282V4.68565H7.79356ZM7.79356 10.934V9.3719H18.7282V10.934H7.79356ZM7.79356 15.6205V17.1826H18.7282V15.6205H7.79356ZM3.10749 9.3719V10.934H4.66959V9.3719H3.10749ZM6.23176 12.4962V7.80988H1.54547V12.4962H6.23176ZM3.10749 15.6205V17.1826H4.66959V15.6205H3.10749ZM6.23176 18.7445V14.0582H1.54547V18.7445H6.23176Z" fill="#D6D900"/>
<mask id="mask0" mask-type="alpha" maskUnits="userSpaceOnUse" x="1" y="1" width="18" height="18">
<path fill-rule="evenodd" clip-rule="evenodd" d="M6.23216 6.24782V1.56152H1.54586V6.24782H6.23216ZM3.10749 3.12355V4.68565H4.66959V3.12355H3.10749ZM7.79356 4.68565V3.12355H18.7282V4.68565H7.79356ZM7.79356 10.934V9.3719H18.7282V10.934H7.79356ZM7.79356 15.6205V17.1826H18.7282V15.6205H7.79356ZM3.10749 9.3719V10.934H4.66959V9.3719H3.10749ZM6.23176 12.4962V7.80988H1.54547V12.4962H6.23176ZM3.10749 15.6205V17.1826H4.66959V15.6205H3.10749ZM6.23176 18.7445V14.0582H1.54547V18.7445H6.23176Z" fill="white"/>
</mask>
<g mask="url(#mask0)">
</g>
</svg>
