<svg width="16" height="17" viewBox="0 0 16 17" fill="none" xmlns="http://www.w3.org/2000/svg">
<path d="M8.00047 0.648926C3.58252 0.648926 0 4.23051 0 8.6494C0 11.9243 1.97001 14.7391 4.78956 15.9763C4.76698 15.4184 4.78579 14.7467 4.92785 14.1389C5.08214 13.4898 5.95708 9.78022 5.95708 9.78022C5.95708 9.78022 5.70212 9.26938 5.70212 8.51392C5.70212 7.32853 6.38984 6.44325 7.24502 6.44325C7.97225 6.44325 8.3241 6.98984 8.3241 7.64463C8.3241 8.37563 7.85747 9.46976 7.61757 10.483C7.41718 11.3325 8.04281 12.024 8.88011 12.024C10.3957 12.024 11.4165 10.0775 11.4165 7.7707C11.4165 6.01801 10.2358 4.70561 8.08796 4.70561C5.66167 4.70561 4.14982 6.51475 4.14982 8.53556C4.14982 9.23363 4.35491 9.72472 4.67666 10.1048C4.82531 10.2807 4.84506 10.3503 4.79144 10.5517C4.75381 10.6975 4.66537 11.0531 4.62868 11.1933C4.57506 11.3956 4.41136 11.4689 4.22885 11.3937C3.11025 10.9374 2.58999 9.71343 2.58999 8.33705C2.58999 6.06505 4.50638 3.33864 8.30717 3.33864C11.3619 3.33864 13.3724 5.55044 13.3724 7.92217C13.3724 11.0606 11.6282 13.4051 9.05509 13.4051C8.19239 13.4051 7.37955 12.9385 7.10108 12.4088C7.10108 12.4088 6.63633 14.2518 6.53848 14.6074C6.36914 15.2236 6.03704 15.8408 5.73317 16.3206C6.45287 16.5332 7.21303 16.6489 8.00047 16.6489C12.4184 16.6489 16 13.0673 16 8.6494C16 4.23051 12.4184 0.648926 8.00047 0.648926Z" fill="#D9D9D9"/>
</svg>
