<svg width="16" height="16" viewBox="0 0 16 16" fill="none" xmlns="http://www.w3.org/2000/svg">
<path fill-rule="evenodd" clip-rule="evenodd" d="M12.0921 4.07716C11.8746 3.8597 11.5221 3.8597 11.3046 4.07716L7.80033 7.58142L4.29608 4.07716C4.07861 3.8597 3.72603 3.8597 3.50856 4.07716C3.29109 4.29463 3.29109 4.64721 3.50856 4.86468L7.01281 8.36893L3.50856 11.8732C3.29109 12.0907 3.29109 12.4432 3.50856 12.6607C3.72603 12.8782 4.07861 12.8782 4.29608 12.6607L7.80033 9.15645L11.3046 12.6607C11.5221 12.8782 11.8746 12.8782 12.0921 12.6607C12.3096 12.4432 12.3096 12.0907 12.0921 11.8732L8.58785 8.36893L12.0921 4.86468C12.3096 4.64721 12.3096 4.29463 12.0921 4.07716Z" fill="white"/>
<mask id="mask0" mask-type="alpha" maskUnits="userSpaceOnUse" x="3" y="3" width="10" height="10">
<path fill-rule="evenodd" clip-rule="evenodd" d="M12.0921 4.07716C11.8746 3.8597 11.5221 3.8597 11.3046 4.07716L7.80033 7.58142L4.29608 4.07716C4.07861 3.8597 3.72603 3.8597 3.50856 4.07716C3.29109 4.29463 3.29109 4.64721 3.50856 4.86468L7.01281 8.36893L3.50856 11.8732C3.29109 12.0907 3.29109 12.4432 3.50856 12.6607C3.72603 12.8782 4.07861 12.8782 4.29608 12.6607L7.80033 9.15645L11.3046 12.6607C11.5221 12.8782 11.8746 12.8782 12.0921 12.6607C12.3096 12.4432 12.3096 12.0907 12.0921 11.8732L8.58785 8.36893L12.0921 4.86468C12.3096 4.64721 12.3096 4.29463 12.0921 4.07716Z" fill="white"/>
</mask>
<g mask="url(#mask0)">
</g>
</svg>
