<svg width="7" height="6" viewBox="0 0 7 6" fill="none" xmlns="http://www.w3.org/2000/svg">
<path fill-rule="evenodd" clip-rule="evenodd" d="M5.7393 2.97112C5.7393 2.86608 5.69757 2.76534 5.62329 2.69106C5.54902 2.61679 5.44828 2.57506 5.34323 2.57506H1.38258C1.27754 2.57506 1.1768 2.61679 1.10252 2.69106C1.02825 2.76534 0.986519 2.86608 0.986519 2.97112C0.986519 3.07617 1.02825 3.17691 1.10252 3.25118C1.1768 3.32546 1.27754 3.36719 1.38258 3.36719L5.34323 3.36719C5.44828 3.36719 5.54902 3.32546 5.62329 3.25118C5.69757 3.17691 5.7393 3.07617 5.7393 2.97112Z" fill="white"/>
<path fill-rule="evenodd" clip-rule="evenodd" d="M6.41594 3.25152C6.45282 3.21473 6.48209 3.17103 6.50205 3.12291C6.52202 3.07479 6.5323 3.0232 6.5323 2.97111C6.5323 2.91901 6.52202 2.86743 6.50205 2.81931C6.48209 2.77119 6.45282 2.72749 6.41594 2.69069L4.03955 0.314304C3.96518 0.239933 3.86431 0.198153 3.75914 0.198153C3.65396 0.198153 3.55309 0.239933 3.47872 0.314304C3.40435 0.388674 3.36257 0.489542 3.36257 0.594718C3.36257 0.699894 3.40435 0.800762 3.47872 0.875132L5.57549 2.97111L3.47872 5.06708C3.4419 5.10391 3.41269 5.14763 3.39276 5.19574C3.37283 5.24385 3.36257 5.29542 3.36257 5.3475C3.36257 5.39958 3.37283 5.45114 3.39276 5.49926C3.41269 5.54737 3.4419 5.59109 3.47872 5.62791C3.51555 5.66474 3.55926 5.69395 3.60738 5.71388C3.65549 5.73381 3.70706 5.74406 3.75914 5.74406C3.81121 5.74406 3.86278 5.73381 3.91089 5.71388C3.95901 5.69395 4.00273 5.66474 4.03955 5.62791L6.41594 3.25152Z" fill="white"/>
</svg>
