<svg width="13" height="13" viewBox="0 0 13 13" fill="none" xmlns="http://www.w3.org/2000/svg">
<path fill-rule="evenodd" clip-rule="evenodd" d="M8.16406 6.41089C8.16406 6.30812 8.12324 6.20955 8.05056 6.13688C7.97789 6.06421 7.87933 6.02338 7.77655 6.02338H3.90146C3.79868 6.02338 3.70012 6.06421 3.62745 6.13688C3.55478 6.20955 3.51395 6.30812 3.51395 6.41089C3.51395 6.51367 3.55478 6.61223 3.62745 6.6849C3.70012 6.75757 3.79868 6.7984 3.90146 6.7984H7.77655C7.87933 6.7984 7.97789 6.75757 8.05056 6.6849C8.12324 6.61223 8.16406 6.51367 8.16406 6.41089Z" fill="#CC0F16"/>
<path fill-rule="evenodd" clip-rule="evenodd" d="M8.8261 6.68542C8.86218 6.64942 8.89082 6.60666 8.91035 6.55958C8.92989 6.5125 8.93994 6.46203 8.93994 6.41106C8.93994 6.36009 8.92989 6.30962 8.91035 6.26254C8.89082 6.21546 8.86218 6.1727 8.8261 6.1367L6.50104 3.81164C6.42828 3.73888 6.32959 3.698 6.22668 3.698C6.12378 3.698 6.02509 3.73888 5.95233 3.81164C5.87956 3.88441 5.83868 3.9831 5.83868 4.086C5.83868 4.18891 5.87956 4.28759 5.95233 4.36036L8.0038 6.41106L5.95233 8.46176C5.9163 8.49779 5.88772 8.54056 5.86822 8.58763C5.84872 8.63471 5.83868 8.68516 5.83868 8.73612C5.83868 8.78707 5.84872 8.83752 5.86822 8.8846C5.88772 8.93167 5.9163 8.97444 5.95233 9.01047C5.98835 9.0465 6.03113 9.07508 6.0782 9.09458C6.12528 9.11408 6.17573 9.12411 6.22668 9.12411C6.27764 9.12411 6.32809 9.11408 6.37516 9.09458C6.42224 9.07508 6.46501 9.0465 6.50104 9.01047L8.8261 6.68542Z" fill="#CC0F16"/>
</svg>
