<svg width="17" height="18" viewBox="0 0 17 18" fill="none" xmlns="http://www.w3.org/2000/svg">
<path fill-rule="evenodd" clip-rule="evenodd" d="M15.5314 10.3456C17.478 8.28205 17.478 4.93612 15.5314 2.87253C13.5896 0.814087 10.4442 0.808943 8.49646 2.85709C6.54869 0.808943 3.40331 0.814087 1.46155 2.87253C-0.485069 4.93612 -0.485069 8.28205 1.46155 10.3456L7.94959 17.225C8.25119 17.5448 8.74023 17.5449 9.04186 17.2251L15.5314 10.3456ZM14.438 9.18762L8.4947 15.4881L2.55271 9.18768C1.20923 7.76348 1.20923 5.45431 2.55265 4.03018C3.89606 2.60604 6.07434 2.60604 7.41775 4.03018C7.57925 4.20139 7.72438 4.3903 7.85184 4.59391C8.15734 5.08193 8.83335 5.08193 9.13885 4.59391C9.26654 4.38993 9.411 4.20184 9.57294 4.03018C10.9163 2.60604 13.0946 2.60604 14.438 4.03018C15.7815 5.45431 15.7815 7.76348 14.438 9.18762Z" fill="black"/>
<mask id="mask0" mask-type="alpha" maskUnits="userSpaceOnUse" x="0" y="1" width="17" height="17">
<path fill-rule="evenodd" clip-rule="evenodd" d="M15.5314 10.3456C17.478 8.28205 17.478 4.93612 15.5314 2.87253C13.5896 0.814087 10.4442 0.808943 8.49646 2.85709C6.54869 0.808943 3.40331 0.814087 1.46155 2.87253C-0.485069 4.93612 -0.485069 8.28205 1.46155 10.3456L7.94959 17.225C8.25119 17.5448 8.74023 17.5449 9.04186 17.2251L15.5314 10.3456ZM14.438 9.18762L8.4947 15.4881L2.55271 9.18768C1.20923 7.76348 1.20923 5.45431 2.55265 4.03018C3.89606 2.60604 6.07434 2.60604 7.41775 4.03018C7.57925 4.20139 7.72438 4.3903 7.85184 4.59391C8.15734 5.08193 8.83335 5.08193 9.13885 4.59391C9.26654 4.38993 9.411 4.20184 9.57294 4.03018C10.9163 2.60604 13.0946 2.60604 14.438 4.03018C15.7815 5.45431 15.7815 7.76348 14.438 9.18762Z" fill="white"/>
</mask>
<g mask="url(#mask0)">
</g>
</svg>
