<svg width="16" height="15" viewBox="0 0 16 15" fill="none" xmlns="http://www.w3.org/2000/svg">
<path fill-rule="evenodd" clip-rule="evenodd" d="M15.9481 3.11644L15.9511 3.11906C15.9743 3.13735 15.982 3.16966 15.9659 3.19587L11.1155 11.0533L7.62834 5.40432L10.407 0.902691C10.5067 0.74144 10.6906 0.648926 10.8755 0.648926C10.9201 0.648926 10.9646 0.655784 11.0082 0.66691C11.0429 0.67575 11.0771 0.686724 11.1097 0.703032L15.9362 3.10885L15.9418 3.11159C15.9443 3.11281 15.9462 3.11463 15.9481 3.11644ZM6.09781 9.50312V4.37889L10.6666 11.7805L6.09781 9.50312ZM11.3531 12.1226L15.1139 13.9971C15.6033 14.2411 16 14.0703 16 13.6158V4.59471L11.3531 12.1226ZM0.590747 0.776647L5.30464 3.12637C5.32222 3.13506 5.33338 3.15305 5.33338 3.17256V13.6158C5.33338 13.9499 5.15237 14.1489 4.8943 14.1489C4.80272 14.1489 4.70136 14.1238 4.59495 14.0707L0.44306 12.0013C0.199362 11.8798 0 11.5582 0 11.2866V1.14061C0 0.873428 0.144782 0.714158 0.351176 0.714158C0.424561 0.714158 0.50559 0.734276 0.590747 0.776647Z" fill="#D9D9D9"/>
</svg>
