<svg width="20" height="20" viewBox="0 0 20 20" fill="none" xmlns="http://www.w3.org/2000/svg">
<path fill-rule="evenodd" clip-rule="evenodd" d="M15.7803 4.21967C15.4874 3.92678 15.0126 3.92678 14.7197 4.21967L10 8.93934L5.28033 4.21967C4.98744 3.92678 4.51256 3.92678 4.21967 4.21967C3.92678 4.51256 3.92678 4.98744 4.21967 5.28033L8.93934 10L4.21967 14.7197C3.92678 15.0126 3.92678 15.4874 4.21967 15.7803C4.51256 16.0732 4.98744 16.0732 5.28033 15.7803L10 11.0607L14.7197 15.7803C15.0126 16.0732 15.4874 16.0732 15.7803 15.7803C16.0732 15.4874 16.0732 15.0126 15.7803 14.7197L11.0607 10L15.7803 5.28033C16.0732 4.98744 16.0732 4.51256 15.7803 4.21967Z" fill="white"/>
<mask id="mask0" mask-type="alpha" maskUnits="userSpaceOnUse" x="4" y="4" width="12" height="12">
<path fill-rule="evenodd" clip-rule="evenodd" d="M15.7803 4.21967C15.4874 3.92678 15.0126 3.92678 14.7197 4.21967L10 8.93934L5.28033 4.21967C4.98744 3.92678 4.51256 3.92678 4.21967 4.21967C3.92678 4.51256 3.92678 4.98744 4.21967 5.28033L8.93934 10L4.21967 14.7197C3.92678 15.0126 3.92678 15.4874 4.21967 15.7803C4.51256 16.0732 4.98744 16.0732 5.28033 15.7803L10 11.0607L14.7197 15.7803C15.0126 16.0732 15.4874 16.0732 15.7803 15.7803C16.0732 15.4874 16.0732 15.0126 15.7803 14.7197L11.0607 10L15.7803 5.28033C16.0732 4.98744 16.0732 4.51256 15.7803 4.21967Z" fill="white"/>
</mask>
<g mask="url(#mask0)">
</g>
</svg>
