<svg width="24" height="24" viewBox="0 0 24 24" fill="none" xmlns="http://www.w3.org/2000/svg">
<path d="M7.2 19.2C5.874 19.2 4.812 20.274 4.812 21.6C4.812 22.926 5.874 24 7.2 24C8.526 24 9.6 22.926 9.6 21.6C9.6 20.274 8.526 19.2 7.2 19.2ZM0 0V2.4H2.4L6.714 11.502L5.094 14.442C4.908 14.79 4.8 15.18 4.8 15.6C4.8 16.926 5.874 18 7.2 18H21.6V15.6H7.71C7.542 15.6 7.41 15.468 7.41 15.3C7.41 15.246 7.422 15.198 7.446 15.156L8.52 13.2H17.46C18.36 13.2 19.146 12.702 19.56 11.964L23.85 4.176C23.946 4.008 24 3.81 24 3.6C24 3.28174 23.8736 2.97652 23.6485 2.75147C23.4235 2.52643 23.1183 2.4 22.8 2.4H5.058L3.918 0H0ZM19.2 19.2C17.874 19.2 16.812 20.274 16.812 21.6C16.812 22.926 17.874 24 19.2 24C20.526 24 21.6 22.926 21.6 21.6C21.6 20.274 20.526 19.2 19.2 19.2Z" fill="black"/>
</svg>
