<svg width="258" height="107" viewBox="0 0 258 107" fill="none" xmlns="http://www.w3.org/2000/svg">
<path fill-rule="evenodd" clip-rule="evenodd" d="M18.8026 51.3601C18.8026 45.9773 19.6583 41.7609 22.0353 38.5986C23.9122 36.102 28.2615 33.0682 32.369 33.0682H38.0813C46.2189 33.0682 52.1235 40.3217 52.1235 48.546V52.7673C52.1235 57.4423 49.9789 62.0503 47.5425 64.4349C44.7523 67.1658 40.9407 68.4796 35.463 68.4796C24.9251 68.4796 18.8026 62.4849 18.8026 52.2983V51.3601ZM0.237925 53.0018C0.237925 70.3921 16.1051 81.3779 34.2731 81.3779H37.1291C54.9941 81.3779 70.4502 69.7266 70.4502 52.5328V48.7805C70.4502 40.1117 65.1872 31.0343 60.0769 27.3423C53.6134 22.6728 46.7799 19.9354 35.7012 19.9354H35.225C28.8994 19.9354 22.5681 20.9787 18.3264 22.984V0.00177765H0L0.237925 53.0018Z" fill="white"/>
<path fill-rule="evenodd" clip-rule="evenodd" d="M214.683 62.1458C214.683 58.2439 221.822 55.5269 225.636 55.1152C228.097 54.8496 230.975 54.0896 233.268 53.7233C236.395 53.2238 237.883 52.0584 239.911 51.5927V56.5175C239.911 64.2313 232.757 70.1193 225.393 70.1193H221.347C217.996 70.1193 214.683 67.7647 214.683 64.2564V62.1458ZM258 79.7344V38.2256C257.995 38.2176 256.91 33.9472 256.722 33.3874C256.392 32.4037 255.344 30.1655 254.816 29.4025C253.401 27.3598 250.739 25.0454 248.483 23.9168C242.979 21.1633 236.749 20.168 228.487 20.168C220.081 20.168 213.894 21.3821 208.256 24.1548C203.723 26.3846 198.736 31.9712 198.736 38.4601V40.5708H215.635C215.635 35.285 221.301 31.8936 226.821 31.8936H228.963C233.472 31.8936 239.673 33.6986 239.673 37.9911C239.673 50.8006 196.356 37.5014 196.356 64.2564C196.356 76.9899 206.159 81.1414 218.967 81.1414C224.212 81.1414 227.118 80.5385 231.248 79.4064C235.406 78.2664 237.155 76.5509 240.149 74.5751L241.216 79.7628L258 79.7344Z" fill="white"/>
<path fill-rule="evenodd" clip-rule="evenodd" d="M74.02 47.8407V50.8892C74.02 70.9798 87.0537 81.1414 107.579 81.1414H111.149C117.664 81.1414 124.493 78.1587 128.667 75.6541C133.839 72.55 136.117 68.0385 138.758 62.615H119.956C119.197 65.822 113.719 68.9467 109.721 68.9467H105.675C98.411 68.9467 92.1085 61.5376 92.1085 54.1724V51.3582C92.1085 45.8326 92.8942 41.8556 95.0595 38.3189C96.6724 35.6845 101.09 32.3626 105.199 32.3626H108.531C115.114 32.3626 120.907 38.1878 120.907 45.0265H104.485V54.6416H139.71V53.2344C139.71 33.1386 128.877 20.168 108.531 20.168C98.0403 20.168 90.1097 22.345 84.2082 26.9233C79.1437 30.8523 74.02 39.0714 74.02 47.8407Z" fill="white"/>
<path fill-rule="evenodd" clip-rule="evenodd" d="M163.749 -0.000152588H145.184V79.7344H163.749V-0.000152588Z" fill="white"/>
<path fill-rule="evenodd" clip-rule="evenodd" d="M191.119 -0.000152588H172.793V79.7344H191.119V-0.000152588Z" fill="white"/>
<path fill-rule="evenodd" clip-rule="evenodd" d="M0 98.0269H258V93.1021H0V98.0269Z" fill="#F15D67"/>
<path fill-rule="evenodd" clip-rule="evenodd" d="M0 106.235H258V101.78H0V106.235Z" fill="#0064A5"/>
</svg>
