<svg width="107" height="44" viewBox="0 0 107 44" fill="none" xmlns="http://www.w3.org/2000/svg">
<path fill-rule="evenodd" clip-rule="evenodd" d="M7.78758 21.272C7.78758 19.0425 8.14196 17.2962 9.12648 15.9865C9.90385 14.9524 11.7052 13.6959 13.4064 13.6959H15.7723C19.1427 13.6959 21.5883 16.7001 21.5883 20.1064V21.8548C21.5883 23.7911 20.7 25.6996 19.6909 26.6872C18.5353 27.8183 16.9566 28.3624 14.6879 28.3624C10.3234 28.3624 7.78758 25.8796 7.78758 21.6605V21.272ZM0.0985426 21.9519C0.0985426 29.1545 6.67032 33.7046 14.195 33.7046H15.3779C22.7772 33.7046 29.1787 28.8789 29.1787 21.7577V20.2035C29.1787 16.6131 26.9989 12.8535 24.8823 11.3244C22.2053 9.3904 19.3751 8.25662 14.7865 8.25662H14.5893C11.9694 8.25662 9.34713 8.68872 7.59035 9.51928V0.000621796H0L0.0985426 21.9519Z" fill="#2D2E2F"/>
<path fill-rule="evenodd" clip-rule="evenodd" d="M88.9157 25.7392C88.9157 24.1231 91.8724 22.9978 93.4522 22.8273C94.4717 22.7173 95.6637 22.4025 96.6131 22.2508C97.9082 22.0439 98.5246 21.5613 99.3648 21.3684V23.4081C99.3648 26.603 96.4016 29.0416 93.3516 29.0416H91.6758C90.288 29.0416 88.9157 28.0664 88.9157 26.6134V25.7392ZM106.857 33.024V15.832C106.855 15.8287 106.405 14.06 106.327 13.8282C106.19 13.4208 105.757 12.4938 105.538 12.1778C104.952 11.3317 103.849 10.3731 102.915 9.90569C100.635 8.76528 98.0548 8.35305 94.633 8.35305C91.1516 8.35305 88.5891 8.85592 86.2541 10.0043C84.3762 10.9278 82.311 13.2416 82.311 15.9292V16.8034H89.3099C89.3099 14.6141 91.657 13.2095 93.9431 13.2095H94.8302C96.6977 13.2095 99.2662 13.9571 99.2662 15.7349C99.2662 21.0403 81.3252 15.5321 81.3252 26.6134C81.3252 31.8873 85.3854 33.6067 90.6901 33.6067C92.8627 33.6067 94.0662 33.357 95.7766 32.8881C97.4986 32.416 98.223 31.7054 99.4633 30.8871L99.9051 33.0357L106.857 33.024Z" fill="#2D2E2F"/>
<path fill-rule="evenodd" clip-rule="evenodd" d="M30.6572 19.8144V21.0771C30.6572 29.3981 36.0555 33.6068 44.5566 33.6068H46.0352C48.7337 33.6068 51.5618 32.3714 53.2905 31.3341C55.4329 30.0484 56.3763 28.1799 57.4701 25.9336H49.6826C49.3685 27.2618 47.0994 28.556 45.4438 28.556H43.7679C40.7594 28.556 38.149 25.4874 38.149 22.4369V21.2713C38.149 18.9827 38.4744 17.3356 39.3713 15.8708C40.0393 14.7797 41.8688 13.4038 43.5708 13.4038H44.9508C47.6773 13.4038 50.0768 15.8165 50.0768 18.6489H43.2751V22.6312H57.8644V22.0484C57.8644 13.7252 53.3778 8.35311 44.9508 8.35311C40.6058 8.35311 37.3212 9.25477 34.8769 11.151C32.7793 12.7783 30.6572 16.1824 30.6572 19.8144Z" fill="#2D2E2F"/>
<path fill-rule="evenodd" clip-rule="evenodd" d="M67.8208 0H60.1318V33.024H67.8208V0Z" fill="#2D2E2F"/>
<path fill-rule="evenodd" clip-rule="evenodd" d="M79.1568 -0.00012207H71.5664V33.0239H79.1568V-0.00012207Z" fill="#2D2E2F"/>
<path fill-rule="evenodd" clip-rule="evenodd" d="M0 40.6H106.857V38.5603H0V40.6Z" fill="#F15D67"/>
<path fill-rule="evenodd" clip-rule="evenodd" d="M0 44H106.857V42.1545H0V44Z" fill="#0064A5"/>
</svg>
