<svg width="14" height="14" viewBox="0 0 14 14" fill="none" xmlns="http://www.w3.org/2000/svg">
<path d="M3.50602 1.16669C2.38019 1.16669 1.46436 2.08252 1.46436 3.20835C1.46436 4.13002 2.08269 4.90177 2.92269 5.15494V9.3316C2.92211 9.43602 2.93844 10.3705 3.60752 11.0414C4.02052 11.4567 4.57352 11.6667 5.25019 11.6667V12.8334L7.58352 11.0834L5.25019 9.33335V10.5C4.18677 10.5 4.09286 9.60519 4.08936 9.33335V5.15494C4.92936 4.90177 5.54769 4.13002 5.54769 3.20835C5.54769 2.08252 4.63127 1.16669 3.50602 1.16669ZM3.50602 4.08335C3.02361 4.08335 2.63102 3.69077 2.63102 3.20835C2.63102 2.72594 3.02361 2.33335 3.50602 2.33335C3.98844 2.33335 4.38102 2.72594 4.38102 3.20835C4.38102 3.69077 3.98844 4.08335 3.50602 4.08335ZM11.0894 8.84511V4.66494C11.0864 3.7281 10.4611 2.33335 8.75019 2.33335V1.16669L6.41686 2.91669L8.75019 4.66669V3.50002C9.81711 3.50002 9.91744 4.39777 9.92269 4.66669V8.84511C9.08269 9.09827 8.46436 9.87002 8.46436 10.7917C8.46436 11.9175 9.38019 12.8334 10.506 12.8334C11.6319 12.8334 12.5477 11.9175 12.5477 10.7917C12.5477 9.87002 11.9294 9.09827 11.0894 8.84511ZM10.506 11.6667C10.0236 11.6667 9.63102 11.2741 9.63102 10.7917C9.63102 10.3093 10.0236 9.91669 10.506 9.91669C10.9884 9.91669 11.381 10.3093 11.381 10.7917C11.381 11.2741 10.9884 11.6667 10.506 11.6667Z" fill="white"/>
</svg>
