<svg width="33" height="31" viewBox="0 0 33 31" fill="none" xmlns="http://www.w3.org/2000/svg">
<path d="M31.7707 9.37802C31.7535 8.12313 31.5115 6.88071 31.0556 5.70634C30.6603 4.71576 30.0564 3.81615 29.2827 3.06496C28.5089 2.31378 27.5823 1.72755 26.562 1.34373C25.3679 0.908555 24.1064 0.67325 22.8312 0.647831C21.1894 0.576585 20.6688 0.556702 16.5012 0.556702C12.3335 0.556702 11.7993 0.556702 10.1694 0.647831C8.89482 0.673437 7.63392 0.908739 6.44037 1.34373C5.41988 1.72728 4.4931 2.31342 3.71931 3.06464C2.94553 3.81585 2.34179 4.71561 1.94671 5.70634C1.49757 6.86473 1.25572 8.08914 1.23162 9.32666C1.15823 10.9222 1.13605 11.4276 1.13605 15.4737C1.13605 19.5199 1.13605 20.0368 1.23162 21.6208C1.25722 22.8602 1.49786 24.083 1.94671 25.2445C2.34245 26.2349 2.94664 27.1343 3.72068 27.8852C4.49473 28.6361 5.4216 29.222 6.44207 29.6054C7.63236 30.0581 8.89348 30.3102 10.1711 30.351C11.8147 30.4223 12.3352 30.4438 16.5029 30.4438C20.6706 30.4438 21.2047 30.4438 22.8346 30.351C24.1097 30.3266 25.3713 30.0919 26.5654 29.6568C27.5854 29.2725 28.5118 28.6861 29.2855 27.935C30.0592 27.1839 30.6632 26.2845 31.059 25.2942C31.5079 24.1343 31.7485 22.9116 31.7741 21.6705C31.8475 20.0766 31.8697 19.5712 31.8697 15.5235C31.8663 11.4773 31.8663 10.9637 31.7707 9.37802ZM16.4909 23.1253C12.1321 23.1253 8.60101 19.6972 8.60101 15.4655C8.60101 11.2337 12.1321 7.80563 16.4909 7.80563C18.5835 7.80563 20.5903 8.61264 22.0699 10.0491C23.5496 11.4856 24.3808 13.4339 24.3808 15.4655C24.3808 17.497 23.5496 19.4453 22.0699 20.8818C20.5903 22.3183 18.5835 23.1253 16.4909 23.1253ZM24.6949 9.30843C23.676 9.30843 22.8551 8.50981 22.8551 7.5223C22.8551 7.28785 22.9026 7.05569 22.9951 6.83909C23.0875 6.62249 23.2229 6.42567 23.3937 6.25989C23.5645 6.09411 23.7672 5.96261 23.9903 5.87289C24.2134 5.78317 24.4525 5.73699 24.694 5.73699C24.9355 5.73699 25.1746 5.78317 25.3977 5.87289C25.6209 5.96261 25.8236 6.09411 25.9943 6.25989C26.1651 6.42567 26.3006 6.62249 26.393 6.83909C26.4854 7.05569 26.5329 7.28785 26.5329 7.5223C26.5329 8.50981 25.7103 9.30843 24.6949 9.30843Z" fill="white"/>
<path d="M16.4899 20.4406C19.3204 20.4406 21.615 18.213 21.615 15.465C21.615 12.717 19.3204 10.4893 16.4899 10.4893C13.6593 10.4893 11.3647 12.717 11.3647 15.465C11.3647 18.213 13.6593 20.4406 16.4899 20.4406Z" fill="white"/>
</svg>
