<svg width="16" height="16" viewBox="0 0 16 16" fill="none" xmlns="http://www.w3.org/2000/svg">
<path fill-rule="evenodd" clip-rule="evenodd" d="M12.1454 4.07753C11.928 3.86006 11.5754 3.86006 11.3579 4.07753L7.85368 7.58178L4.34942 4.07753C4.13195 3.86006 3.77937 3.86006 3.5619 4.07753C3.34444 4.295 3.34444 4.64758 3.5619 4.86505L7.06616 8.3693L3.5619 11.8736C3.34444 12.091 3.34444 12.4436 3.5619 12.6611C3.77937 12.8785 4.13195 12.8785 4.34942 12.6611L7.85368 9.15682L11.3579 12.6611C11.5754 12.8785 11.928 12.8785 12.1454 12.6611C12.3629 12.4436 12.3629 12.091 12.1454 11.8736L8.64119 8.3693L12.1454 4.86505C12.3629 4.64758 12.3629 4.295 12.1454 4.07753Z" fill="black"/>
<mask id="mask0" mask-type="alpha" maskUnits="userSpaceOnUse" x="3" y="3" width="10" height="10">
<path fill-rule="evenodd" clip-rule="evenodd" d="M12.1454 4.07753C11.928 3.86006 11.5754 3.86006 11.3579 4.07753L7.85368 7.58178L4.34942 4.07753C4.13195 3.86006 3.77937 3.86006 3.5619 4.07753C3.34444 4.295 3.34444 4.64758 3.5619 4.86505L7.06616 8.3693L3.5619 11.8736C3.34444 12.091 3.34444 12.4436 3.5619 12.6611C3.77937 12.8785 4.13195 12.8785 4.34942 12.6611L7.85368 9.15682L11.3579 12.6611C11.5754 12.8785 11.928 12.8785 12.1454 12.6611C12.3629 12.4436 12.3629 12.091 12.1454 11.8736L8.64119 8.3693L12.1454 4.86505C12.3629 4.64758 12.3629 4.295 12.1454 4.07753Z" fill="white"/>
</mask>
<g mask="url(#mask0)">
</g>
</svg>
