<svg width="20" height="15" viewBox="0 0 20 15" fill="none" xmlns="http://www.w3.org/2000/svg">
<path d="M5.64285 14.0004C6.66852 14.0004 7.49999 13.1689 7.49999 12.1433C7.49999 11.1176 6.66852 10.2861 5.64285 10.2861C4.61718 10.2861 3.78571 11.1176 3.78571 12.1433C3.78571 13.1689 4.61718 14.0004 5.64285 14.0004Z" stroke="#13131B" stroke-width="1.5" stroke-linecap="round" stroke-linejoin="round"/>
<path d="M14.9286 14.0004C15.9542 14.0004 16.7857 13.1689 16.7857 12.1433C16.7857 11.1176 15.9542 10.2861 14.9286 10.2861C13.9029 10.2861 13.0714 11.1176 13.0714 12.1433C13.0714 13.1689 13.9029 14.0004 14.9286 14.0004Z" stroke="#13131B" stroke-width="1.5" stroke-linecap="round" stroke-linejoin="round"/>
<path d="M1 1H11.2143M7.5 12.1429H13.0714M18.6429 6.57143V12.1429L11.2143 6.57143H18.6429ZM18.6429 6.57143L15.8571 1.92857H11.2143M3.78571 12.1429H1.92857V8.42857L3.78571 12.1429Z" stroke="#13131B" stroke-width="1.5" stroke-linecap="round" stroke-linejoin="round"/>
<path d="M1.92859 4.71387H5.64287" stroke="#13131B" stroke-width="1.5" stroke-linecap="round" stroke-linejoin="round"/>
</svg>
