<svg width="20" height="20" viewBox="0 0 20 20" fill="none" xmlns="http://www.w3.org/2000/svg">
<path fill-rule="evenodd" clip-rule="evenodd" d="M9.79924 9.51402V1.56152H1.84674V9.51402H9.79924ZM3.40876 7.95185V3.12355H8.23707V7.95185H3.40876ZM12.64 3.12355V7.95185H17.4683V3.12355H12.64ZM19.0305 9.51402V1.56152H11.078V9.51402H19.0305ZM3.40876 12.3543V17.1826H8.23707V12.3543H3.40876ZM9.79924 18.7445V10.792H1.84674V18.7445H9.79924ZM12.64 17.1826H17.4683V12.3543H12.64V17.1826ZM19.0305 18.7445V10.792H11.078V18.7445H19.0305Z" fill="#D6D900"/>
<mask id="mask0" mask-type="alpha" maskUnits="userSpaceOnUse" x="1" y="1" width="19" height="18">
<path fill-rule="evenodd" clip-rule="evenodd" d="M9.79924 9.51402V1.56152H1.84674V9.51402H9.79924ZM3.40876 7.95185V3.12355H8.23707V7.95185H3.40876ZM12.64 3.12355V7.95185H17.4683V3.12355H12.64ZM19.0305 9.51402V1.56152H11.078V9.51402H19.0305ZM3.40876 12.3543V17.1826H8.23707V12.3543H3.40876ZM9.79924 18.7445V10.792H1.84674V18.7445H9.79924ZM12.64 17.1826H17.4683V12.3543H12.64V17.1826ZM19.0305 18.7445V10.792H11.078V18.7445H19.0305Z" fill="white"/>
</mask>
<g mask="url(#mask0)">
</g>
</svg>
