<svg width="14" height="14" viewBox="0 0 14 14" fill="none" xmlns="http://www.w3.org/2000/svg">
<path d="M3.50608 1.16699C2.38025 1.16699 1.46442 2.08283 1.46442 3.20866C1.46442 4.13033 2.08275 4.90208 2.92275 5.15524V9.33191C2.92217 9.43633 2.9385 10.3708 3.60758 11.0417C4.02058 11.457 4.57358 11.667 5.25025 11.667V12.8337L7.58358 11.0837L5.25025 9.33366V10.5003C4.18683 10.5003 4.09292 9.60549 4.08942 9.33366V5.15524C4.92942 4.90208 5.54775 4.13033 5.54775 3.20866C5.54775 2.08283 4.63133 1.16699 3.50608 1.16699ZM3.50608 4.08366C3.02367 4.08366 2.63108 3.69108 2.63108 3.20866C2.63108 2.72624 3.02367 2.33366 3.50608 2.33366C3.9885 2.33366 4.38108 2.72624 4.38108 3.20866C4.38108 3.69108 3.9885 4.08366 3.50608 4.08366ZM11.0894 8.84541V4.66524C11.0865 3.72841 10.4612 2.33366 8.75025 2.33366V1.16699L6.41692 2.91699L8.75025 4.66699V3.50033C9.81717 3.50033 9.9175 4.39808 9.92275 4.66699V8.84541C9.08275 9.09858 8.46442 9.87033 8.46442 10.792C8.46442 11.9178 9.38025 12.8337 10.5061 12.8337C11.6319 12.8337 12.5478 11.9178 12.5478 10.792C12.5478 9.87033 11.9294 9.09858 11.0894 8.84541ZM10.5061 11.667C10.0237 11.667 9.63108 11.2744 9.63108 10.792C9.63108 10.3096 10.0237 9.91699 10.5061 9.91699C10.9885 9.91699 11.3811 10.3096 11.3811 10.792C11.3811 11.2744 10.9885 11.667 10.5061 11.667Z" fill="#13131B"/>
</svg>
